<svg width="29" height="29" viewBox="0 0 29 29" fill="none" xmlns="http://www.w3.org/2000/svg">
<g id="setting">
<mask id="mask0_407_2230" style="mask-type:luminance" maskUnits="userSpaceOnUse" x="0" y="0" width="29" height="29">
<rect id="setting_2" width="29" height="29" fill="white"/>
</mask>
<g mask="url(#mask0_407_2230)">
<path id="setting_3" fill-rule="evenodd" clip-rule="evenodd" d="M18.9811 5.85821C18.6549 5.66568 18.3168 5.49147 17.9682 5.337L17.4588 2.98288C17.3346 2.40902 16.8319 2 16.2508 2H11.7494C11.1683 2 10.6656 2.40903 10.5414 2.98288L10.032 5.337C9.70351 5.48258 9.38432 5.64568 9.07562 5.82514C8.75156 6.01271 8.43707 6.21939 8.13396 6.44469L5.86243 5.71361C5.30871 5.53539 4.70694 5.77097 4.41639 6.27969L2.16571 10.2203C1.87516 10.7291 1.97422 11.3737 2.40376 11.7693L4.16586 13.3923C4.12536 13.7615 4.10551 14.1313 4.10585 14.5C4.10551 14.8687 4.12536 15.2385 4.16586 15.6077L2.40376 17.2307C1.97422 17.6264 1.87516 18.271 2.16571 18.7797L4.41639 22.7203C4.70694 23.2291 5.30871 23.4646 5.86243 23.2864L8.13396 22.5553C8.44043 22.7831 8.75854 22.9919 9.0864 23.1811C9.39175 23.3581 9.70733 23.5191 10.032 23.663L10.5414 26.0171C10.6656 26.591 11.1683 27 11.7494 27H16.2508C16.8319 27 17.3346 26.591 17.4588 26.0171L17.9682 23.663C18.3128 23.5103 18.6472 23.3383 18.9699 23.1484C19.2779 22.9679 19.5772 22.7701 19.866 22.5553L22.1376 23.2864C22.6913 23.4646 23.2931 23.2291 23.5836 22.7203L25.8343 18.7797C26.1248 18.271 26.0258 17.6264 25.5962 17.2307L23.8341 15.6077C23.8747 15.2381 23.8945 14.8678 23.8942 14.4986C23.8944 14.1304 23.8746 13.761 23.8341 13.3923L25.5962 11.7693C26.0258 11.3737 26.1248 10.7291 25.8343 10.2203L23.5836 6.27969C23.2931 5.77097 22.6913 5.53539 22.1376 5.71361L19.866 6.44469C19.5806 6.23255 19.2851 6.03692 18.9811 5.85821C18.9811 5.85821 18.6549 5.66568 18.9811 5.85821ZM14 19.5C16.7318 19.5 18.9463 17.2614 18.9463 14.5C18.9463 11.7386 16.7318 9.5 14 9.5C11.2683 9.5 9.05378 11.7386 9.05378 14.5C9.05378 17.2614 11.2683 19.5 14 19.5C16.7318 19.5 14 19.5 14 19.5Z" fill="url(#paint0_linear_407_2230)"/>
</g>
</g>
<defs>
<linearGradient id="paint0_linear_407_2230" x1="43.4148" y1="23.4027" x2="21.2403" y2="-2.42953" gradientUnits="userSpaceOnUse">
<stop stop-color="white"/>
<stop offset="1" stop-color="#00BAC7"/>
</linearGradient>
</defs>
</svg>
